<?xml version="1.0" encoding="UTF-8"?>
<svg viewBox="0 0 519 49.08" xmlns="http://www.w3.org/2000/svg">
  <g fill="#006241">
    <path d="m82.14 36.35-7.26-10.79v19.01h-9.37v-33.8h8.25l9.52 13.45 9.72-13.45h8.15v33.8h-9.35v-18.92l-7.38 10.69h-2.29z"/>
    <path d="m125.91 26.36-3.43.02c-1.92.02-3.39.55-4.4 1.6s-1.52 2.65-1.52 4.78v11.81h-9.12v-25.92h7.31l.6 2.01c.8-.56 1.73-1.04 2.81-1.43s2.35-.58 3.8-.58h3.95z"/>
    <path d="m137.74 36.28c.08.63.39 1.11.92 1.45s1.23.51 2.09.51c1.03 0 1.75-.13 2.18-.39.42-.26.63-.62.63-1.08 0-.32-.14-.56-.41-.75s-.68-.35-1.21-.5-1.19-.3-1.99-.46-1.72-.37-2.78-.63c-.45-.1-.94-.22-1.49-.37s-1.1-.35-1.65-.6-1.09-.56-1.62-.95c-.52-.38-.99-.84-1.39-1.39s-.73-1.2-.97-1.96-.36-1.65-.36-2.66c0-2.85 1.01-5.02 3.02-6.5s5.02-2.22 9.04-2.22c1.67 0 3.17.22 4.5.65s2.45 1.04 3.37 1.83 1.62 1.73 2.1 2.83.72 2.32.72 3.67l-9.2-.02c-.03-.46-.22-.87-.57-1.22s-.88-.52-1.59-.52-1.3.14-1.7.42c-.41.28-.6.61-.58.99 0 .25.07.45.22.6s.38.28.71.39.75.21 1.27.31 1.16.21 1.9.32c1.44.27 2.79.57 4.04.92s2.34.82 3.26 1.41 1.64 1.35 2.16 2.27c.52.93.78 2.1.78 3.53 0 1.62-.32 3.02-.97 4.2s-1.54 2.14-2.67 2.9c-1.13.75-2.48 1.31-4.04 1.68-1.56.36-3.24.55-5.05.55-2.12 0-3.92-.28-5.41-.83-1.48-.55-2.68-1.27-3.6-2.15s-1.59-1.86-2-2.96-.62-2.19-.62-3.28l8.97.02z"/>
    <path d="m156.93 40.9c0-.61.11-1.19.33-1.73s.55-1.01.97-1.43c.42-.41.93-.74 1.53-.98s1.26-.36 1.99-.36 1.39.12 1.99.36 1.11.57 1.53.98.75.89.97 1.43.33 1.11.33 1.73-.11 1.19-.33 1.74-.55 1.02-.97 1.43-.93.72-1.53.96c-.6.23-1.27.35-2.01.35s-1.39-.12-1.98-.36-1.09-.56-1.52-.97c-.42-.41-.75-.88-.97-1.42s-.33-1.11-.33-1.73z"/>
    <path d="m201.39 26.16h17.5c.15 2.9-.18 5.53-.98 7.89s-1.98 4.38-3.53 6.06-3.41 2.98-5.58 3.9-4.54 1.38-7.11 1.38c-1.72 0-3.38-.21-4.97-.63s-3.07-1.02-4.45-1.79-2.63-1.7-3.77-2.78c-1.13-1.09-2.11-2.29-2.92-3.6-.81-1.32-1.44-2.73-1.88-4.24s-.66-3.08-.66-4.72.22-3.22.66-4.74 1.06-2.93 1.88-4.24c.81-1.31 1.79-2.5 2.92-3.58 1.14-1.08 2.39-2 3.77-2.76 1.37-.76 2.86-1.35 4.45-1.78 1.59-.42 3.25-.63 4.97-.63 2.6 0 5.03.46 7.3 1.39 2.26.93 4.26 2.23 6 3.9l-6.09 6.09c-.81-1.09-1.84-1.96-3.08-2.61s-2.62-.97-4.13-.97c-1.29 0-2.5.25-3.63.76s-2.11 1.2-2.95 2.09-1.5 1.93-1.99 3.14-.73 2.53-.73 3.95.24 2.74.73 3.95 1.15 2.26 1.99 3.14c.84.89 1.82 1.58 2.95 2.09s2.34.76 3.63.76c2.34 0 4.13-.43 5.39-1.29s2.1-2.05 2.51-3.58h-8.23l.02-6.56z"/>
    <path d="m237.46 34.11h-3.13v10.46h-9.37v-33.8h15.04c1.84 0 3.53.29 5.07.86s2.87 1.37 3.99 2.4 1.99 2.26 2.61 3.69.93 3.02.93 4.76c0 1.18-.14 2.28-.42 3.31s-.68 1.97-1.19 2.83-1.14 1.63-1.88 2.31-1.56 1.25-2.47 1.72l6.81 11.93h-10.71l-5.27-10.46zm2.11-7.81c.5 0 .97-.09 1.42-.27s.84-.44 1.17-.77.59-.73.78-1.21c.19-.47.29-1 .29-1.58 0-.55-.1-1.06-.29-1.54s-.45-.89-.78-1.24-.72-.62-1.16-.82-.91-.3-1.4-.3h-5.27v7.73z"/>
    <path d="m257.72 10.77h24.41v7.8h-15.04v5.39h12.83v7.78h-12.83v5.02h15.26v7.8h-24.63z"/>
    <path d="m287.42 10.77h24.41v7.8h-15.04v5.39h12.83v7.78h-12.83v5.02h15.26v7.8h-24.63z"/>
    <path d="m348.79 44.58h-8.13l-14.17-18.19v18.19h-9.37v-33.81h8.23l14.09 18.12v-18.12h9.35v33.8z"/>
    <path d="m386.4 40.15h-10.59l-2.96 4.42h-10.86l23.79-33.83h9.74l.1 33.83h-9.22zm-6.21-6.49h6.21l.02-9.94h-.22l-1.14 2.71z"/>
    <path d="m411.28 34.71v9.87h-9.37v-33.81h14.94c1.84 0 3.53.3 5.07.89s2.87 1.43 3.99 2.5 1.99 2.34 2.61 3.8.93 3.07.93 4.81-.31 3.39-.93 4.85-1.48 2.71-2.59 3.77-2.42 1.87-3.95 2.45-3.2.87-5.01.87zm5.15-7.81c.5 0 .96-.11 1.4-.32.44-.22.83-.51 1.17-.88s.6-.81.79-1.31.29-1.04.29-1.62-.1-1.1-.29-1.6-.45-.95-.78-1.33-.72-.69-1.16-.92-.91-.35-1.4-.35h-5.17v8.33z"/>
    <path d="m443.71 34.71v9.87h-9.37v-33.81h14.94c1.84 0 3.53.3 5.07.89s2.87 1.43 3.99 2.5 1.99 2.34 2.61 3.8c.62 1.47.93 3.07.93 4.81s-.31 3.39-.93 4.85-1.48 2.71-2.59 3.77-2.42 1.87-3.95 2.45-3.2.87-5.01.87zm5.15-7.81c.5 0 .96-.11 1.4-.32.44-.22.83-.51 1.17-.88s.6-.81.79-1.31.29-1.04.29-1.62-.1-1.1-.29-1.6-.45-.95-.78-1.33-.72-.69-1.16-.92-.91-.35-1.4-.35h-5.17v8.33z"/>
    <path d="m466.78 10.77h9.37v26h13.22v7.8h-22.59z"/>
    <path d="m494.37 10.77h24.41v7.8h-15.04v5.39h12.83v7.78h-12.83v5.02h15.26v7.8h-24.63z"/>
    <path d="m23.8 10c3.95-5.26.95-10 .95-10s-7.45-.37-10.47 5.47.12 11.42.12 11.42 5.83-2.14 9.4-6.9z"/>
    <path d="m34.82 9.41c-7.17-1.04-13.48 6.82-16.83 13.25-3.69 7.07-3.67-.3-6.23-4.29-2.37-3.69-7.47-2.7-9.54 1.15-2.94 5.48-2.9 12.85-.28 17.79 2.54 4.82 6.87 7.09 6.64 7.03 2.33 1.49 3.3-.8.72-3.21-3.04-2.85-4.34-8.53-2.76-12.55 0 0 2.13-4.14 4.2-.45 1.74 3.1 2.51 4.75 4.91 6.88 1.41 1.25 3.34.01 3.62-1.69.59-3.6 3.36-7.67 7.81-9.78 7.14-3.39 13.25 7.69 3.93 19.84-1.27 1.66-4.05 4.23-1.54 5.45 3.71 1.8 12.97-6.9 15.24-18.36 2.31-11.65-2.68-20.01-9.9-21.07z"/>
  </g>
</svg>
